<svg width="193" height="152" viewBox="0 0 193 152" fill="none" xmlns="http://www.w3.org/2000/svg">
<path d="M149.567 118.066C143.427 121.918 135.657 119.339 128.886 118.387C76.7556 103.309 50.956 62.732 81.4328 28.8761C100.377 7.8315 136.703 12.7535 159.934 26.9948C170.132 33.2458 179.317 44.4159 185.238 54.5931C189.362 61.6801 183.026 81.354 180.075 87.8699C174.178 100.89 161.624 110.502 149.567 118.066Z" fill="#A67731" stroke="#505050" stroke-width="3" stroke-linecap="round"/>
<path d="M84.5785 89.7956C92.1864 90.8648 98.8847 93.6669 106.201 95.9382C113.453 98.1894 121.246 98.9395 128.751 99.9942C140.157 101.597 147.761 96.1615 155.345 88.3398C159.232 84.3314 160.527 76.71 161.264 71.4676C162.313 64.0039 163.039 55.8661 157.334 49.8543C148.754 40.8127 132.338 35.9904 120.17 36.2069C113.671 36.3225 108.728 43.5418 106.072 48.6357C103.845 52.9057 100.053 60.963 101.609 65.9658C104.58 75.5175 114.746 81.4937 124.197 82.822C130.997 83.7776 140.584 77.9183 139.656 70.1728C139.333 67.4758 137.725 64.7141 136.091 62.6408C134.281 60.3449 128.281 57.7201 125.442 59.0857C122.036 60.7245 121.097 65.218 120.616 68.6371" stroke="#816132" stroke-width="5" stroke-linecap="round"/>
<path d="M80.9693 38.087C109.943 47.6254 99.5926 90.8437 96.5267 112.658C107.364 106.497 132.152 111.558 140.476 116.752C149.559 122.419 150.581 128.223 149.903 133.049C148.611 142.242 112.465 141.691 106.601 141.023C82.7344 138.307 54.2232 136.7 32.5613 125.931C21.4113 120.388 9.44009 112.153 6.41059 99.4076C3.42822 86.8604 8.43135 70.0943 13.8667 58.8601C19.9482 46.2904 27.2754 36.3538 41.1171 31.705C52.8987 27.748 69.8397 34.423 80.9693 38.087Z" fill="#C9F2A8" stroke="#555555" stroke-width="3" stroke-linecap="round" stroke-linejoin="round"/>
<path d="M54.8795 30.8606C56.4821 19.4574 46.706 12.1363 36.6197 10.7188C33.2873 10.2505 30.4594 15.7115 34.6633 16.3024C37.3199 16.6757 40.6447 15.4274 41.0542 12.5137" stroke="#555555" stroke-width="3" stroke-linecap="round"/>
<path d="M85.5341 40.8114C86.8596 31.3796 90.3634 19.2278 78.2612 17.5269C74.416 16.9865 71.2676 15.2558 70.8827 20.0051C70.7789 21.2864 72.9612 22.0915 73.9488 21.3473C74.7776 20.7228 74.679 18.0042 74.8142 17.0425" stroke="#555555" stroke-width="3" stroke-linecap="round"/>
<circle cx="2.5" cy="2.5" r="2.5" transform="matrix(-0.990268 -0.139173 -0.139173 0.990268 80.8862 61.3726)" fill="#D9D9D9"/>
<circle cx="2.5" cy="2.5" r="2.5" transform="matrix(-0.990268 -0.139173 -0.139173 0.990268 80.8862 61.3726)" fill="#313131"/>
<circle cx="2.5" cy="2.5" r="2.5" transform="matrix(-0.990268 -0.139173 -0.139173 0.990268 47.062 50.5596)" fill="#313131"/>
<path d="M55.6345 57.8234L63.843 60.4917C62.0833 64.1262 59.7013 68.4057 56.788 67.5789C53.8747 66.752 54.6313 61.3647 55.6345 57.8234Z" fill="white" stroke="#313131" stroke-width="2" stroke-linecap="round" stroke-linejoin="round"/>
</svg>
